/* XPM */
static char *_49726005b9140fb80d32ce385d67bb4eMkw3eIKJWb0NLb5[] = {
/* columns rows colors chars-per-pixel */
"32 32 238 2 ",
"   c #33331B",
".  c #02022A",
"X  c #01012E",
"o  c #00002F",
"O  c #06062D",
"+  c #05052E",
"@  c #07072E",
"#  c #07072F",
"$  c #09092F",
"%  c #18192A",
"&  c #000031",
"*  c #0A0A30",
"=  c #0B0B31",
"-  c #0C0C32",
";  c #0D0D33",
":  c #0B0B35",
">  c #0E0E34",
",  c #080838",
"<  c #101035",
"1  c #121237",
"2  c #13133A",
"3  c #141439",
"4  c #16163B",
"5  c #17173B",
"6  c #19193D",
"7  c #1A1A3D",
"8  c #1B1B3F",
"9  c #202029",
"0  c #363622",
"q  c #74751C",
"w  c #414224",
"e  c #484923",
"r  c #4F4F20",
"t  c #4D4E22",
"y  c #48492B",
"u  c #6A6B2C",
"i  c #7D7E28",
"p  c #696A32",
"a  c #1D1D41",
"s  c #1F1F42",
"d  c #232346",
"f  c #242447",
"g  c #2B2B4C",
"h  c #363744",
"j  c #303050",
"k  c #313151",
"l  c #323252",
"z  c #353552",
"x  c #343454",
"c  c #3B3B59",
"v  c #3D3D5B",
"b  c #3E3E5C",
"n  c #77785D",
"m  c #444461",
"M  c #444462",
"N  c #454563",
"B  c #464663",
"V  c #494966",
"C  c #4A4A67",
"Z  c #52526D",
"A  c #53536E",
"S  c #535373",
"D  c #595973",
"F  c #606079",
"G  c #63637B",
"H  c #64647D",
"J  c #68687F",
"K  c #979910",
"L  c #ACAD04",
"P  c #ADAE04",
"I  c #A8AA0F",
"U  c #B6B700",
"Y  c #A1A113",
"T  c #A1A212",
"R  c #B2B315",
"E  c #B0B21F",
"W  c #BDBE1A",
"Q  c #8A8A2F",
"!  c #98992B",
"~  c #9D9F2B",
"^  c #9C9D38",
"/  c #B2B321",
"(  c #B3B32B",
")  c #B6B628",
"_  c #A3A432",
"`  c #AAAA37",
"'  c #A0A139",
"]  c #A9A93C",
"[  c #BEC01B",
"{  c #C0C307",
"}  c #C1C30B",
"|  c #C6C70A",
" . c #C3C40F",
".. c #C8C90B",
"X. c #DBDE01",
"o. c #D1D308",
"O. c #D8DA08",
"+. c #C4C512",
"@. c #C4C613",
"#. c #C0C018",
"$. c #DDE000",
"%. c #DFE106",
"&. c #E1E300",
"*. c #E3E600",
"=. c #E4E700",
"-. c #E6E704",
";. c #E7EA00",
":. c #E8E904",
">. c #EFF000",
",. c #F0F300",
"<. c #F1F300",
"1. c #F2F400",
"2. c #F2F500",
"3. c #F3F500",
"4. c #F8FB00",
"5. c #F9FB00",
"6. c #FAFC00",
"7. c #FEFF00",
"8. c yellow",
"9. c #9C9C45",
"0. c #9A9B4F",
"q. c #868653",
"w. c #92925A",
"e. c #999A5C",
"r. c #A6A745",
"t. c #A3A45E",
"y. c #9D9D6A",
"u. c #9D9D70",
"i. c #9F9F75",
"p. c #A3A360",
"a. c #A3A465",
"s. c #A1A179",
"d. c #6B6B82",
"f. c #6C6C83",
"g. c #717188",
"h. c #727288",
"j. c #727289",
"k. c #7A7A8F",
"l. c #7B7B90",
"z. c #7F8091",
"x. c #888885",
"c. c #85858B",
"v. c #828296",
"b. c #87879A",
"n. c #89899B",
"m. c #A3A484",
"M. c #A5A687",
"N. c #AAAA85",
"B. c #A7A88E",
"V. c #A8A888",
"C. c #A9A98E",
"Z. c #A9A990",
"A. c #AFAF9B",
"S. c #B0B098",
"D. c #9191A2",
"F. c #9393A4",
"G. c #9494A4",
"H. c #9595A5",
"J. c #9797A8",
"K. c #9D9DAF",
"L. c #AEAEA1",
"P. c #AFAFA4",
"I. c #B2B2A2",
"U. c #B0B0A4",
"Y. c #B5B5A9",
"T. c #A1A1B0",
"R. c #A2A2B3",
"E. c #A6A6B4",
"W. c #A8A8B6",
"Q. c #ACACB9",
"!. c #B9B9B0",
"~. c #B1B1BD",
"^. c #C0C0B4",
"/. c #C3C3B9",
"(. c #C4C4BA",
"). c #C3C3BD",
"_. c #B5B5C0",
"`. c #C7C7C1",
"'. c #C6C6CF",
"]. c #D0D0CD",
"[. c #D1D1CD",
"{. c #D2D1CE",
"}. c #D4D4CE",
"|. c #C7C7D0",
" X c #CACAD3",
".X c #CBCBD3",
"XX c #CDCDD5",
"oX c #CECED6",
"OX c #CFCFD7",
"+X c #D6D6D4",
"@X c #D7D7D6",
"#X c #D8D8D6",
"$X c #D5D5DC",
"%X c #D5D5DD",
"&X c #D6D6DC",
"*X c #D6D6DD",
"=X c #D9D9DA",
"-X c #D8D8DE",
";X c #DADADF",
":X c gainsboro",
">X c #E0E0DF",
",X c #E1E1DF",
"<X c #DCDCE1",
"1X c #DDDDE2",
"2X c #DEDEE3",
"3X c #E2E2E1",
"4X c #E0E0E5",
"5X c #E1E1E5",
"6X c #E1E1E6",
"7X c #E3E3E7",
"8X c #E4E4E8",
"9X c #E5E5E9",
"0X c #E6E6EA",
"qX c #E7E7EA",
"wX c #E6E6EB",
"eX c #EBEBEF",
"rX c #ECECEC",
"tX c #EDEDEC",
"yX c #ECECEF",
"uX c #F6F6EE",
"iX c #EEEEF1",
"pX c #F2F2F1",
"aX c #F0F0F3",
"sX c #F2F2F4",
"dX c gray96",
"fX c #F4F4F6",
"gX c #F5F5F7",
"hX c gray97",
"jX c #F7F7F8",
"kX c #F8F8F9",
"lX c #F9F9F9",
"zX c #F9F9FA",
"xX c #FAFAFB",
"cX c #FBFBFC",
"vX c #FCFCFD",
"bX c #FDFDFD",
"nX c #FEFEFE",
"mX c white",
/* pixels */
"mXmXmXmXmXmXmXmXmXmXmXmXmXmXmXmXmXmXmXmXmXmXmXmXmXmXmXmXmXmXmXmX",
"mXmXmXmXmXmXmXmXmXmXmXmXmXmXmXmXmXiX_.g.m a ; 8 m k.oXmXmXmXmXmX",
"mXmXmXmXmXmXmXmXmXmXmXmXmXmXmX2Xg.3 @ d C D b $ @ @ = D.mXmXmXmX",
"mXmXmXmXmXmXmXmXmXmXmXmXmXgXl.> @ d. XmXmXmXmX%XC @ @ 8 mXmXmXmX",
"mXmXmXmXmXmXmXmXmXmXmXmXoXc @ g '.mXmXmXmXmXmXmXgXv + C mXmXmXmX",
"mXmXmXmXmXmXmXmXmXmXmXQ.1 @ Z yXmXmXmXmXmXmXmXmXmX Xk 2XmXmXmXmX",
"mXmXmXmXmXmXmXmXmXmXE.@ @ V jXmXmXmXmXmXmXmXmXmXmXcXiXmXmXmXmXmX",
"mXmXmXmXmXmXmXmXmXR.@ @ j eXmXmXmXmXmXmXmXmXpXxXmXmXmXmXmXmXmXmX",
"mXmXmXmXmXmXmXmX:Xy & : %XmXmXmXmXmXmXmXU.9.+.y.mXmXmXmXmXmXmXmX",
"mXmXmXmXmXmXmXmXn ;.| c.mXmXmXmXmXmXmXmXQ 7.7.s.mXmXmXmXmXmXmXmX",
"mXmXmXmXmXmXmXS.r 9 p uXmXmXmXmXmXmXmXyXR 7.[ }.mXmXmXmXmXmXmXmX",
"mXmXmXmXmXmXwXi -.} z.mXmXmXmXmXmXmXmXI.1.7.e.mXmXmXmXmXmXmXmXmX",
"mXmXmXmXmXmXn.X % u 7XmXmXmXmXmXmXmXmXr.7.;.).mXmXmXmXmXmXmXmXmX",
"mXmXmXmXmXxXg + X S mXmXmXmXmXmXmXmX:Xw Y ~ xXmXmXmXmXmXmXmXmXmX",
"mXmXmXmXmXoX@ @ @ H.mXmXmXmXmXmXmXmXm.T r x.mXmXmXmXmXmXmXmXmXmX",
"mXmXmXmXmXH.@ @ @ '.mXmXmXmXmXmXmXgXh q I @XmXmXmXmXmXmXmXmXmXmX",
"mXmXmXmXmXJ O O - 2XmXmXmXmXmXmXmX!.K e z cXmXmXmXmXmXmXmXmXmXmX",
"mXmXmXmXmXm O O 1 7XmXmXmXmXmXmXmX0.7.1.P.mXmXmXmXmXmXmXmXmXmXmX",
"mXmXmXmXmXz O O = $XmXmXmXmXmXmX3X..7.E gXmXmXoXF.mXmXmXmXmXmXmX",
"mXmXmXmXmXm O O @ T.mXmXmXmXmXmXC.5.7.i.mXmXW.3 g.mXmXmXmXmXmXmX",
"mXmXmXmXmXg.+ O @ z pXmXmXmXmXvX_ 7.O.3X7XG @ a 0XmXmXmXmXmXmXmX",
"mXmXmXmXmX'.+ O + + m 4XmXmXmX].X.7.! g.3 @ v %XmXmXmXmXmXmXmXmX",
"mXmXmXmXmXmXJ O + + @ 8 G D.K.q.7.3.  & 4 b.kXmXmXmXmXmXmXmXmXmX",
"mXmXmXmXmXmXxXF + + @ @ @ + . P 7.P 4 v.0XmXmXmXmXmXmXmXmXmXmXmX",
"mXmXmXmXmXmXmXmX~.Z d < $ : 0 ,.7.w.0XmXmXmXmXmXmXmXmXmXmXmXmXmX",
"mXmXmXmXmXmXmXmXmXmXfX4X%X<X^ 7.*.`.mXmXmXmXmXmXmXmXmXmXmXmXmXmX",
"mXmXmXmXmXmXmXmXmXmXmXmXmX>Xo.7./ gXmXmXmXmXmXmXmXmXmXmXmXmXmXmX",
"mXmXmXmXmXmXmXmXmXmXmXmXmXB.5.7.' mXmXmXmXmXmXmXmXmX}.Y.mXmXmXmX",
"mXmXmXmXmXmXmXmXmXmXmXmXmXp.7.7.%.y.^.}.@X}.^.S.a.( U L.mXmXmXmX",
"mXmXmXmXmXmXmXmXmXmXmXmXmXZ.3.7.7.7.,.&.$.=.,.5.;. .V.mXmXmXmXmX",
"mXmXmXmXmXmXmXmXmXmXmXmXmXxXM.` W +.+.[ ) ] t.N.(.tXmXmXmXmXmXmX",
"mXmXmXmXmXmXmXmXmXmXmXmXmXmXmXmXmXmXmXmXmXmXmXmXmXmXmXmXmXmXmXmX"
};
